<svg aria-hidden="true" style="position: absolute; width: 0; height: 0; overflow: hidden;" version="1.1" xmlns="http://www.w3.org/2000/svg" xmlns:xlink="http://www.w3.org/1999/xlink">
<defs>
<symbol id="icon-instagram" viewBox="0 0 32 32">
<path d="M16 18.813c1.55 0 2.819-1.262 2.819-2.819 0-0.613-0.2-1.181-0.531-1.644-0.512-0.706-1.344-1.175-2.281-1.175s-1.769 0.463-2.281 1.175c-0.331 0.463-0.531 1.031-0.531 1.644-0.006 1.556 1.256 2.819 2.806 2.819z"></path>
<path d="M22.15 12.556v-2.713h-0.35l-2.363 0.006 0.012 2.713z"></path>
<path d="M20.375 16c0 2.413-1.962 4.375-4.375 4.375s-4.375-1.962-4.375-4.375c0-0.581 0.119-1.137 0.325-1.644h-2.387v6.55c0 0.844 0.688 1.531 1.531 1.531h9.813c0.844 0 1.531-0.688 1.531-1.531v-6.55h-2.387c0.212 0.506 0.325 1.063 0.325 1.644z"></path>
<path d="M16 0c-8.838 0-16 7.162-16 16s7.162 16 16 16 16-7.163 16-16-7.163-16-16-16zM24 14.356v6.55c0 1.706-1.387 3.094-3.094 3.094h-9.813c-1.706 0-3.094-1.387-3.094-3.094v-9.819c0-1.706 1.387-3.094 3.094-3.094h9.813c1.706 0 3.094 1.387 3.094 3.094v3.269z"></path>
</symbol>
<symbol id="icon-box-_logo" viewBox="0 0 32 32">
<path d="M31.988 7.881c-0.036-0.344-0.249-0.64-0.569-0.794l-15.004-7.004c-0.261-0.119-0.581-0.119-0.841 0l-15.004 7.004c-0.32 0.154-0.533 0.45-0.569 0.794 0 0.012 0 0.107 0 0.119v16.996c0 0.403 0.249 0.77 0.628 0.924l14.993 5.997c0.119 0.059 0.249 0.083 0.379 0.083 0.119 0 0.249-0.024 0.367-0.083l14.993-5.997c0.379-0.154 0.64-0.521 0.64-0.924v-16.996c0-0.012-0.012-0.107-0.012-0.119zM16 2.098l12.48 5.831-4.812 1.92-12.717-5.393 5.049-2.359zM8.51 5.594l12.527 5.31-5.037 2.015-12.492-4.99 5.001-2.335zM1.991 9.47l13.001 5.203v14.85l-13.001-5.203v-14.85zM16.996 29.523v-14.85l13.001-5.203v14.85l-13.001 5.203z"></path>
</symbol>
<symbol id="icon-delivery-home" viewBox="0 0 32 32">
<path d="M23.328 32c-0.139 0-0.277-0.053-0.395-0.139-0.341-0.245-8.267-6.229-8.267-11.029 0-2.667 2.165-4.832 4.832-4.832 1.525 0 2.923 0.704 3.829 1.867 0.907-1.163 2.304-1.867 3.829-1.867 2.667 0 4.843 2.165 4.843 4.832 0 4.8-7.936 10.784-8.277 11.029-0.117 0.085-0.256 0.139-0.395 0.139zM19.499 17.333c-1.931 0-3.499 1.568-3.499 3.499 0 3.243 4.96 7.797 7.328 9.653 2.368-1.856 7.339-6.411 7.339-9.653 0-1.931-1.579-3.499-3.509-3.499-1.397 0-2.667 0.821-3.221 2.101-0.203 0.48-1.003 0.48-1.216 0-0.555-1.28-1.824-2.101-3.221-2.101z"></path>
<path d="M12.661 26.667h-5.995c-1.472 0-2.667-1.205-2.667-2.667v-9.333h-2.667c-0.757 0-1.333-0.587-1.333-1.333 0-0.384 0.16-0.747 0.427-0.992l13.109-12.171c0.256-0.235 0.661-0.235 0.907 0l4.224 3.904v-2.080c0-0.373 0.299-0.672 0.661-0.672h4c0.373 0 0.672 0.299 0.672 0.672v7.029l3.573 3.317c0.267 0.256 0.277 0.672 0.032 0.949-0.256 0.267-0.672 0.288-0.949 0.032l-3.787-3.52c-0.128-0.128-0.203-0.299-0.203-0.491v-6.656h-2.667v2.955c0 0.267-0.16 0.501-0.405 0.608s-0.523 0.053-0.715-0.128l-4.885-4.523-12.661 11.755 3.328 0.011c0.363 0 0.672 0.299 0.672 0.661v10.005c0 0.736 0.597 1.333 1.333 1.333h5.995c0.373 0 0.672 0.299 0.672 0.661 0 0.373-0.299 0.672-0.672 0.672z"></path>
</symbol>
<symbol id="icon-delivery-sedan" viewBox="0 0 32 32">
<path d="M5.995 17.333c-1.835 0-3.328 1.493-3.328 3.328s1.493 3.339 3.328 3.339c1.835 0 3.328-1.504 3.328-3.339s-1.493-3.328-3.328-3.328zM5.995 22.667c-1.099 0-1.995-0.907-1.995-2.005s0.896-1.995 1.995-1.995c1.099 0 2.005 0.896 2.005 1.995s-0.907 2.005-2.005 2.005z"></path>
<path d="M25.995 17.333c-1.835 0-3.328 1.493-3.328 3.328s1.493 3.339 3.328 3.339c1.835 0 3.328-1.504 3.328-3.339s-1.493-3.328-3.328-3.328zM25.995 22.667c-1.099 0-1.995-0.907-1.995-2.005s0.896-1.995 1.995-1.995c1.099 0 2.005 0.896 2.005 1.995s-0.907 2.005-2.005 2.005z"></path>
<path d="M28 13.333h-1.131c-0.416 0-0.821-0.149-1.141-0.405l-5.248-4.203c-0.597-0.469-1.333-0.725-2.091-0.725h-9.632c-1.12 0-2.155 0.555-2.773 1.483l-1.141 1.696c-0.341 0.512-0.907 0.821-1.515 0.821-1.835 0-3.328 1.493-3.328 3.328v2.667c0 1.835 1.493 3.339 3.328 3.339 0.363 0 0.672-0.309 0.672-0.672s-0.309-0.661-0.672-0.661c-1.099 0-1.995-0.907-1.995-2.005v-2.667c0-1.099 0.896-1.995 1.995-1.995 1.056 0 2.037-0.533 2.624-1.408l1.141-1.707c0.373-0.555 0.992-0.896 1.664-0.896h9.632c0.459 0 0.896 0.16 1.259 0.448l5.248 4.192c0.555 0.448 1.259 0.693 1.973 0.693h1.131c1.952 0 2.667 1.995 2.667 3.339 0 1.312-1.013 1.995-2.005 1.995-0.363 0-0.661 0.299-0.661 0.672 0 0.363 0.299 0.661 0.661 0.661 1.899 0.011 3.339-1.429 3.339-3.328 0-2.261-1.408-4.661-4-4.661z"></path>
<path d="M23.328 20h-14.667c-0.363 0-0.661 0.299-0.661 0.661s0.299 0.672 0.661 0.672h14.667c0.373 0 0.672-0.309 0.672-0.672s-0.299-0.661-0.672-0.661z"></path>
<path d="M21.995 13.333h-5.995v-2.005c0-0.363-0.299-0.672-0.672-0.672-0.363 0-0.661 0.309-0.661 0.672v2.667c0 0.373 0.299 0.672 0.661 0.672h6.667c0.373 0 0.672-0.299 0.672-0.672 0-0.363-0.299-0.661-0.672-0.661z"></path>
<path d="M12.661 13.333h-4.256l0.853-1.707c0.16-0.331 0.032-0.725-0.299-0.896-0.331-0.16-0.725-0.032-0.896 0.299l-1.333 2.667c-0.107 0.203-0.096 0.459 0.032 0.651 0.117 0.192 0.331 0.32 0.565 0.32h5.333c0.373 0 0.672-0.299 0.672-0.672 0-0.363-0.299-0.661-0.672-0.661z"></path>
<path d="M17.995 16h-1.333c-0.363 0-0.661 0.299-0.661 0.661 0 0.373 0.299 0.672 0.661 0.672h1.333c0.363 0 0.672-0.299 0.672-0.672 0-0.363-0.309-0.661-0.672-0.661z"></path>
</symbol>
<symbol id="icon-delivery-truck" viewBox="0 0 32 32">
<path d="M26.155 21.035c-0.779 0-1.525 0.309-2.080 0.864-0.565 0.555-0.875 1.291-0.875 2.069 0 0.789 0.309 1.515 0.875 2.069s1.301 0.864 2.080 0.864c1.6 0 2.912-1.312 2.912-2.933 0-1.611-1.312-2.933-2.912-2.933zM26.155 25.6c-0.896 0-1.653-0.747-1.653-1.632s0.757-1.632 1.653-1.632c0.885 0 1.6 0.736 1.6 1.632 0 0.907-0.715 1.632-1.6 1.632zM26.912 11.275c-0.117-0.117-0.277-0.171-0.437-0.171h-3.339c-0.363 0-0.651 0.288-0.651 0.651v5.344c0 0.352 0.288 0.651 0.651 0.651h5.301c0.363 0 0.651-0.299 0.651-0.651v-3.584c0-0.181-0.075-0.352-0.213-0.48l-1.963-1.76zM27.787 16.448h-4v-4.053h2.432l1.568 1.408v2.645zM10.24 21.035c-0.779 0-1.525 0.309-2.080 0.864-0.565 0.555-0.875 1.291-0.875 2.069 0 0.789 0.309 1.515 0.875 2.069s1.301 0.864 2.080 0.864c1.611 0 2.912-1.312 2.912-2.933 0-1.611-1.301-2.933-2.912-2.933zM10.24 25.6c-0.896 0-1.653-0.747-1.653-1.632s0.757-1.632 1.653-1.632c0.885 0 1.611 0.736 1.611 1.632 0 0.907-0.725 1.632-1.611 1.632zM5.899 21.835h-1.312v-1.728c0-0.363-0.288-0.651-0.651-0.651s-0.651 0.288-0.651 0.651v2.389c0 0.352 0.288 0.651 0.651 0.651h1.963c0.363 0 0.651-0.299 0.651-0.651 0-0.363-0.288-0.661-0.651-0.661zM9.205 18.293c0-0.363-0.299-0.661-0.651-0.661h-7.904c-0.363 0-0.651 0.299-0.651 0.661 0 0.352 0.288 0.651 0.651 0.651h7.904c0.352 0 0.651-0.288 0.651-0.651zM1.973 15.936l7.904 0.043c0.352 0 0.651-0.288 0.651-0.64 0.011-0.363-0.288-0.661-0.64-0.661l-7.904-0.043c-0.011 0-0.011 0-0.011 0-0.352 0-0.651 0.288-0.651 0.64 0 0.373 0.288 0.661 0.651 0.661zM3.296 12.981h7.904c0.363 0 0.651-0.299 0.651-0.651 0-0.363-0.288-0.661-0.651-0.661h-7.904c-0.352 0-0.651 0.299-0.651 0.661 0 0.352 0.299 0.651 0.651 0.651zM31.755 12.096l-4.661-3.861c-0.117-0.096-0.267-0.149-0.427-0.149h-5.483v-2.347c0-0.363-0.288-0.651-0.651-0.651h-16.597c-0.363 0-0.651 0.288-0.651 0.651v4.768c0 0.363 0.288 0.651 0.651 0.651s0.651-0.288 0.651-0.651v-4.117h15.307v15.445h-5.344c-0.363 0-0.661 0.299-0.661 0.661 0 0.352 0.299 0.651 0.661 0.651h7.947c0.363 0 0.661-0.299 0.661-0.651 0-0.363-0.299-0.661-0.661-0.661h-1.301v-12.448h5.248l4.245 3.52-0.043 8.917h-0.672c-0.363 0-0.661 0.299-0.661 0.651 0 0.363 0.299 0.651 0.661 0.651h1.323c0.352 0 0.651-0.277 0.651-0.64l0.053-9.877c-0.011-0.192-0.096-0.384-0.245-0.512z"></path>
</symbol>
<symbol id="icon-facebook" viewBox="0 0 32 32">
<path d="M26.667 16.067c-0.025-2.033-0.63-4.016-1.745-5.716s-2.691-3.047-4.545-3.88c-1.854-0.834-3.908-1.121-5.919-0.827s-3.897 1.157-5.435 2.487-2.663 3.071-3.244 5.019c-0.581 1.948-0.593 4.022-0.035 5.976s1.663 3.709 3.185 5.057c1.522 1.348 3.397 2.233 5.405 2.551v-7.56h-2.667v-3.107h2.667v-2.36c-0.062-0.549-0.002-1.104 0.174-1.628s0.466-1.001 0.847-1.401c0.381-0.399 0.846-0.71 1.361-0.91s1.067-0.285 1.618-0.248c0.8 0.011 1.598 0.082 2.387 0.213v2.667h-1.333c-0.23-0.029-0.463-0.006-0.683 0.067s-0.42 0.195-0.587 0.356-0.294 0.358-0.375 0.575c-0.080 0.217-0.111 0.45-0.089 0.681v2.013h2.96l-0.48 3.107h-2.467v7.467c2.52-0.399 4.813-1.687 6.465-3.632s2.551-4.417 2.535-6.968z"></path>
</symbol>
<symbol id="icon-menu-burger" viewBox="0 0 32 32">
<path d="M0.992 9.995h30.005c0.555 0 1.003-0.448 1.003-1.003 0-0.544-0.459-0.992-1.003-0.992h-30.005c-0.555 0-0.992 0.448-0.992 0.992 0 0.555 0.437 1.003 0.992 1.003z"></path>
<path d="M30.997 14.997h-30.005c-0.555 0-0.992 0.448-0.992 1.003 0 0.544 0.437 0.992 0.992 0.992h30.005c0.555 0 1.003-0.448 1.003-0.992 0-0.555-0.448-1.003-1.003-1.003z"></path>
<path d="M30.997 21.995h-20c-0.555 0-1.003 0.448-1.003 1.003s0.448 0.992 1.003 0.992h20c0.555 0 1.003-0.448 1.003-0.992 0-0.555-0.448-1.003-1.003-1.003z"></path>
</symbol>
<symbol id="icon-search" viewBox="0 0 32 32">
<path fill="#fff" style="fill: var(--color1, #fff)" d="M31.253 29.867l-9.749-9.749c1.835-2.133 2.965-4.907 2.965-7.936 0-6.763-5.504-12.245-12.245-12.245-3.264 0-6.336 1.28-8.661 3.584-2.304 2.304-3.584 5.376-3.563 8.661 0 6.741 5.483 12.224 12.224 12.224 3.029 0 5.803-1.109 7.957-2.944l9.728 9.728 1.344-1.323zM12.224 22.528c-5.696 0-10.347-4.651-10.347-10.347 0-2.773 1.067-5.376 3.029-7.339 1.941-1.941 4.544-3.029 7.317-3.029 5.717 0 10.347 4.651 10.347 10.368 0 5.696-4.629 10.347-10.347 10.347z"></path>
</symbol>
<symbol id="icon-twitter" viewBox="0 0 32 32">
<path d="M11.919 24.94c-2.548 0-4.921-0.747-6.919-2.032 0.328 0.042 0.707 0.066 1.091 0.066 2.118 0 4.067-0.728 5.609-1.948l-0.019 0.014c-1.967-0.037-3.624-1.328-4.206-3.105l-0.009-0.032c0.276 0.054 0.559 0.082 0.848 0.082 0.412 0 0.812-0.056 1.193-0.156-2.079-0.432-3.62-2.248-3.622-4.425v-0.059c0.589 0.334 1.289 0.54 2.035 0.564l0.007 0c-1.218-0.82-2.008-2.193-2.008-3.751 0-0.003 0-0.005 0-0.008v0c0-0.824 0.225-1.602 0.612-2.268 2.236 2.735 5.543 4.522 9.272 4.714l0.031 0.001c-0.075-0.307-0.117-0.66-0.117-1.022 0-2.495 2.022-4.517 4.517-4.517 1.297 0 2.466 0.547 3.29 1.422l0.002 0.002c1.081-0.218 2.041-0.598 2.907-1.117l-0.041 0.023c-0.35 1.064-1.051 1.931-1.963 2.487l-0.020 0.011c0.962-0.117 1.837-0.367 2.649-0.733l-0.057 0.023c-0.62 0.915-1.367 1.689-2.226 2.319l-0.026 0.018c0.008 0.193 0.014 0.388 0.014 0.583-0.001 5.962-4.542 12.843-12.844 12.842z"></path>
</symbol>
</defs>
</svg>
