<svg xmlns="http://www.w3.org/2000/svg" aria-hidden="true" style="position:absolute;width:0;height:0;overflow:hidden"><defs><symbol id="icon-edit" viewBox="0 0 32 32"><path fill="#09244b" d="M22.299 4.04a2.667 2.667 0 0 0-3.771 0L4.776 17.792c-.5.5-.781 1.178-.781 1.886v6.977c0 .744.603 1.347 1.347 1.347h6.977c.707 0 1.386-.281 1.886-.781l13.752-13.752a2.667 2.667 0 0 0 0-3.771L22.3 4.041zm-1.886 1.886 5.657 5.657-2.301 2.301-5.657-5.657 2.301-2.301zm-4.186 4.186-9.565 9.565v5.657h5.657l9.565-9.565-5.657-5.657z" style="fill:var(--color1, #09244b)"/></symbol><symbol id="icon-heart" viewBox="0 0 32 32"><path fill="#1c274c" d="M11.949 25.215zM16 7.334l-.721.693a1.002 1.002 0 0 0 1.442 0L16 7.334zm4.051 17.881zm-7.483-.786c-2.021-1.593-4.231-3.149-5.984-5.123-1.719-1.935-2.918-4.194-2.918-7.124h-2c0 3.554 1.481 6.265 3.422 8.452 1.907 2.148 4.339 3.866 6.241 5.365l1.238-1.571zM3.667 12.183c0-2.868 1.62-5.273 3.832-6.284 2.149-.982 5.036-.722 7.78 2.129l1.441-1.387C13.464 3.258 9.685 2.701 6.667 4.08c-2.955 1.351-5.001 4.487-5.001 8.103h2zM11.33 26c.683.538 1.416 1.113 2.159 1.547s1.59.787 2.511.787v-2c-.413 0-.899-.161-1.502-.514s-1.229-.838-1.93-1.391L11.33 26zm9.34 0c1.902-1.5 4.334-3.218 6.241-5.365 1.942-2.186 3.422-4.898 3.422-8.452h-2c0 2.93-1.199 5.188-2.918 7.124-1.753 1.974-3.963 3.53-5.984 5.123l1.238 1.571zm9.663-13.817c0-3.616-2.046-6.752-5.001-8.103-3.018-1.379-6.797-.822-10.053 2.561l1.441 1.387c2.744-2.851 5.631-3.111 7.78-2.129 2.212 1.011 3.833 3.416 3.833 6.284h2zM19.432 24.429c-.701.553-1.327 1.038-1.93 1.391s-1.089.514-1.502.514v2c.921 0 1.768-.353 2.511-.787S19.987 26.539 20.67 26l-1.238-1.571z" style="fill:var(--color2, #1c274c)"/></symbol><symbol id="icon-home" viewBox="0 0 32 32"><path fill="#080341" d="M28.6 13.7 16 4.25 3.4 13.7l.6 1.8h1V27h22V15.5h1l.6-1.8zM7 25V13.5l9-6.75 9 6.75V25h-5v-5.889l-1-1h-6l-1 1V25H7zm7 0h4v-4.889h-4V25z" style="fill:var(--color3, #080341)"/></symbol></defs></svg>